<?xml version="1.0" standalone="no"?>
<!DOCTYPE svg PUBLIC "-//W3C//DTD SVG 20010904//EN"
 "http://www.w3.org/TR/2001/REC-SVG-20010904/DTD/svg10.dtd">
<svg version="1.0" xmlns="http://www.w3.org/2000/svg"
 width="3333.000000pt" height="2183.000000pt" viewBox="0 0 3333.000000 2183.000000"
 preserveAspectRatio="xMidYMid meet">

<g transform="translate(0.000000,2183.000000) scale(0.100000,-0.100000)"
fill="#000000" stroke="none">
<path d="M16015 21824 c-38 -2 -167 -8 -285 -14 -2838 -139 -5677 -956 -8195
-2358 -1892 -1053 -3654 -2468 -5166 -4147 -591 -656 -1241 -1482 -1685 -2142
-371 -550 -582 -1123 -666 -1803 -18 -142 -18 -748 0 -890 84 -679 296 -1253
666 -1803 515 -765 1226 -1652 1945 -2427 194 -209 733 -751 961 -964 2391
-2248 5161 -3808 8225 -4635 1137 -307 2341 -512 3495 -595 510 -37 633 -41
1350 -41 812 0 1134 14 1775 76 2661 257 5247 1083 7577 2420 1183 679 2319
1503 3368 2443 505 452 1113 1061 1586 1586 585 650 1238 1480 1680 2137 371
550 582 1123 666 1803 18 142 18 748 0 890 -69 560 -230 1059 -488 1516 -197
350 -763 1124 -1276 1747 -465 565 -895 1033 -1454 1587 -2433 2408 -5344
4101 -8544 4970 -1284 349 -2477 541 -3920 631 -163 10 -1459 20 -1615 13z
m1286 -1754 c315 -15 404 -20 539 -30 484 -38 833 -79 1305 -151 115 -17 204
-32 405 -69 125 -23 466 -93 635 -131 258 -58 788 -195 885 -228 14 -5 59 -19
100 -31 102 -29 209 -63 375 -116 2322 -752 4478 -2079 6220 -3828 226 -227
295 -324 367 -516 61 -161 63 -176 63 -415 0 -199 -2 -228 -23 -300 -61 -215
-158 -379 -311 -530 -313 -307 -756 -415 -1173 -285 -198 61 -338 154 -549
361 -256 252 -375 366 -542 516 -1399 1260 -3042 2210 -4802 2776 -253 81
-298 95 -463 141 -462 130 -1020 255 -1454 325 -38 6 -96 16 -130 21 -361 58
-715 96 -1263 137 -328 24 -1312 24 -1640 0 -548 -41 -902 -79 -1262 -137 -35
-5 -93 -15 -130 -21 -235 -38 -564 -103 -833 -165 -2013 -466 -3879 -1395
-5490 -2733 -313 -260 -578 -503 -939 -860 -163 -160 -286 -253 -412 -310
-262 -118 -566 -137 -843 -51 -319 99 -598 356 -728 670 -65 155 -73 206 -73
445 0 239 2 254 63 415 84 226 161 323 539 686 933 896 1863 1610 2898 2226
1571 934 3216 1562 5015 1913 77 16 106 21 295 55 510 91 1283 180 1790 206
66 3 188 9 270 14 227 11 1065 11 1296 0z m-31 -4364 c14 -2 75 -7 135 -11
299 -16 740 -66 1075 -121 1541 -252 3013 -817 4330 -1664 536 -344 1069 -756
1550 -1198 220 -202 650 -641 777 -792 125 -149 207 -322 248 -520 23 -111 24
-354 1 -457 -130 -599 -674 -998 -1271 -934 -189 20 -357 80 -520 185 -70 44
-124 93 -240 214 -324 339 -569 575 -840 811 -402 349 -958 735 -1477 1024
-150 84 -524 273 -658 332 -47 21 -109 48 -139 62 -121 54 -488 195 -669 257
-1770 603 -3639 644 -5434 120 -404 -118 -799 -265 -1230 -458 -127 -57 -488
-241 -649 -332 -612 -344 -1167 -746 -1701 -1232 -64 -59 -210 -204 -325 -322
-373 -385 -404 -415 -498 -476 -698 -455 -1633 -59 -1792 759 -21 113 -21 336
2 447 32 158 99 315 183 435 133 187 670 731 1047 1061 1043 911 2189 1599
3492 2095 955 363 2045 609 3048 689 297 24 354 27 480 29 71 1 132 5 135 8 6
6 901 -4 940 -11z m-20 -4371 c1017 -95 1913 -367 2800 -853 257 -141 614
-375 868 -570 423 -324 859 -749 1188 -1157 290 -361 370 -495 431 -726 25
-94 27 -121 28 -274 0 -184 -12 -259 -61 -397 -119 -330 -382 -593 -712 -712
-141 -50 -205 -60 -387 -61 -217 0 -319 21 -501 105 -186 86 -333 212 -487
420 -157 212 -277 351 -467 540 -385 386 -779 666 -1265 901 -549 264 -1088
408 -1705 454 -246 18 -384 18 -630 0 -617 -46 -1156 -190 -1705 -454 -486
-235 -880 -515 -1265 -901 -187 -186 -302 -319 -472 -545 -187 -249 -352 -376
-598 -462 -133 -47 -208 -58 -390 -58 -177 1 -243 11 -382 61 -330 119 -593
382 -712 712 -49 138 -61 213 -61 397 1 153 3 180 28 274 61 231 141 365 431
726 231 287 607 674 880 908 848 726 1838 1235 2911 1497 440 107 914 175
1350 194 172 8 728 -5 885 -19z m-381 -4345 c356 -33 646 -113 956 -265 514
-251 932 -668 1193 -1190 315 -629 357 -1382 116 -2052 -209 -582 -629 -1081
-1171 -1391 -396 -226 -835 -342 -1298 -342 -700 0 -1351 268 -1846 760 -411
407 -669 920 -756 1501 -23 157 -23 559 0 714 57 382 165 686 360 1012 315
527 854 950 1447 1138 323 102 684 143 999 115z"/>
</g>
</svg>
